<svg width="50" height="28" version="1.1" viewBox="0 0 13.229166 7.4083334" xmlns="http://www.w3.org/2000/svg">
	<path d="m12.454 0c-0.14711 0-0.2808 0.04662-0.40116 0.13983-0.12036 0.093239-0.18719 0.23757-0.20061 0.43288-0.0267 0.32856 0.05797 0.61936 0.25408 0.87244 0.19616 0.24866 0.4458 0.44839 0.7489 0.59941-0.03114 0.61267-0.2028 1.3075-0.51485 2.0845-0.31205 0.77258-0.73552 1.4363-1.2704 1.9913-0.53491 0.55499-1.2764 0.95853-1.8054 0.83248-0.27787-0.066225-0.76904-0.18063-0.81103-0.99764-0.044212-0.85931 0.45048-1.8637 0.70136-2.5774 0.19487-0.55237 0.37036-1.0957 0.44738-1.3066 0.12504-0.34258 0.19386-0.73255 0.19386-1.0389 0-0.31081-0.07575-0.55721-0.2273-0.73927-0.15161-0.18648-0.39677-0.27969-0.73554-0.27969-0.42791 0-0.81801 0.12875-1.1701 0.38627-0.34769 0.25307-0.69093 0.65929-1.0297 1.2188-0.33433 0.55496-0.69321 1.3075-1.0766 2.2576l0.4881-1.8048c0.12041-0.444 0.1806-0.81026 0.1806-1.0989 0-0.63934-0.29869-0.95901-0.89601-0.95901-0.39674 0-0.76671 0.11766-1.11 0.35298-0.33875 0.23088-0.67532 0.61045-1.0096 1.1388-0.3343 0.52837-0.68421 1.2387-1.0498 2.1311l0.4346-1.7182c0.13372-0.45286 0.20061-0.8147 0.20061-1.0856 0-0.5461-0.26524-0.81915-0.79571-0.81915-0.78004 0-1.3306 0.46839-1.6516 1.4052l-0.34769 0.99232h0.26077l0.18053-0.50615c0.17383-0.49723 0.34322-0.85243 0.50816-1.0656 0.16939-0.21754 0.35666-0.32631 0.56166-0.32631 0.19169 0 0.28755 0.11544 0.28755 0.34631 0 0.10657-0.033576 0.27302-0.1003 0.49948-0.39087 1.7226-0.98973 3.0377-1.305 4.7617-0.075433 0.55467 0.050985 1.288 0.78944 1.288h0.014552l0.27347-1.0749c0.30753-1.0878 0.66193-2.0801 1.0631-2.977 0.40563-0.90128 0.81354-1.6116 1.2236-2.1311 0.4146-0.51946 0.78901-0.77922 1.1234-0.77922 0.25408 0 0.38113 0.14878 0.38113 0.44622 0 0.17761-0.046778 0.41071-0.14044 0.69929-0.40362 1.6356-1.0526 2.8965-1.3584 4.5286-0.067866 0.50191 0.065749 1.288 0.78938 1.288h0.025929l0.16179-0.53544-0.013229 0.066596c0.39669-1.2742 0.80904-2.3997 1.237-3.3765 0.42791-0.97679 0.84915-1.7405 1.2637-2.291 0.41902-0.55052 0.8046-0.82584 1.1568-0.82584 0.20061 0 0.30091 0.14213 0.30091 0.42624 0 0.18206-0.046778 0.42177-0.14044 0.71927l-1.1006 3.3299c-0.36409 1.1909-0.098399 2.4841 1.4249 2.4841 0.80682 0 1.5178-0.26191 2.133-0.78584 0.61516-0.5239 1.1055-1.2032 1.471-2.0379 0.36997-0.83473 0.61071-1.7227 0.72218-2.6639 0.02222-0.2131 0.03352-0.39291 0.03352-0.53946 0-0.42622-0.06466-0.76144-0.19394-1.0056-0.12927-0.2486-0.32319-0.37293-0.58174-0.37293z" style="fill:currentColor"/>
</svg>
